<?xml version="1.0" encoding="utf-8"?>
<!-- Generator: Adobe Illustrator 22.0.1, SVG Export Plug-In . SVG Version: 6.00 Build 0)  -->
<svg version="1.1" id="Layer_1" xmlns="http://www.w3.org/2000/svg" xmlns:xlink="http://www.w3.org/1999/xlink" x="0px" y="0px"
	 viewBox="0 0 391.1 134.8" style="enable-background:new 0 0 391.1 134.8;" xml:space="preserve">
<style type="text/css">
	
		.st0{fill-rule:evenodd;clip-rule:evenodd;fill:#2E3192;stroke:#000000;stroke-width:0;stroke-linecap:round;stroke-linejoin:round;stroke-miterlimit:10;}
	
		.st1{fill-rule:evenodd;clip-rule:evenodd;fill:#FFFFFF;stroke:#000000;stroke-width:0;stroke-linecap:round;stroke-linejoin:round;stroke-miterlimit:10;}
	.st2{fill-rule:evenodd;clip-rule:evenodd;fill:#FFF200;}
	.st3{fill-rule:evenodd;clip-rule:evenodd;fill:#00AB4E;}
	.st4{fill-rule:evenodd;clip-rule:evenodd;fill:#2B333C;}
	.st5{fill-rule:evenodd;clip-rule:evenodd;fill:#00A651;}
</style>
<path class="st0" d="M214.8,0h15.9v10.7h-15.9V0z"/>
<path class="st0" d="M57.7,0h17.7v21.5L93.8,0h23.4L96.5,21.5L118.2,57H96.5l-12-23.5l-9.1,9.6V57H57.7V0z"/>
<path class="st0" d="M123.1,15.7H138v6.8c1.4-3,2.9-5,4.4-6.1c1.5-1.1,3.4-1.6,5.6-1.6c2.3,0,4.9,0.7,7.7,2.2l-4.9,11.3
	c-1.9-0.8-3.4-1.2-4.5-1.2c-2.1,0-3.7,0.9-4.9,2.6c-1.6,2.4-2.4,6.9-2.4,13.6V57h-15.9V15.7z"/>
<path class="st0" d="M214.8,15.7h15.9V57h-15.9V15.7z"/>
<path class="st0" d="M238.9,15.7h38.4V25l-20.9,21.3h22.1V57h-41.2V46.8l19.8-20.2h-18.3V15.7z"/>
<g>
	<path class="st0" d="M330.2,40.3h-31.8c0.3,2.5,1,4.4,2.1,5.7c1.5,1.8,3.5,2.7,6,2.7c1.6,0,3-0.4,4.4-1.2c0.9-0.5,1.8-1.4,2.8-2.6
		l15.6,1.4c-2.4,4.1-5.3,7.1-8.7,8.9c-3.4,1.8-8.2,2.7-14.5,2.7c-5.5,0-9.8-0.8-12.9-2.4c-3.1-1.5-5.7-4-7.8-7.3
		c-2-3.3-3.1-7.3-3.1-11.8c0-6.5,2.1-11.7,6.2-15.7c4.2-4,9.9-6,17.1-6c5.9,0,10.6,0.9,14.1,2.7c3.4,1.8,6,4.4,7.8,7.8
		c1.8,3.4,2.7,7.9,2.7,13.3V40.3z"/>
	<path class="st1" d="M314,32.7h-15.6c0.3-2.5,0.9-4.4,1.8-5.6c1.5-2,3.5-3,6-3c2.2,0,4,0.6,5.3,2C312.9,27.5,313.8,29.6,314,32.7z"
		/>
</g>
<path class="st0" d="M0,71.4h12v14.8c1.2-1.3,2.5-2.2,4-2.8c1.5-0.6,3.2-1,5-1c3.8,0,6.9,1.4,9.4,4.1c2.4,2.7,3.7,6.6,3.7,11.7
	c0,3.4-0.6,6.3-1.7,8.9s-2.7,4.5-4.7,5.8c-2,1.3-4.2,1.9-6.6,1.9c-2.1,0-4-0.5-5.7-1.4c-1.3-0.7-2.7-2-4.3-3.9v4.6H0V71.4z
	 M11.9,98.6c0,2.6,0.5,4.6,1.5,5.8c1,1.2,2.3,1.8,3.8,1.8c1.4,0,2.6-0.6,3.6-1.8c1-1.2,1.5-3.2,1.5-5.9c0-2.5-0.5-4.3-1.4-5.4
	c-1-1.1-2.1-1.7-3.5-1.7c-1.6,0-2.9,0.6-3.9,1.8C12.4,94.4,11.9,96.2,11.9,98.6z M40.2,71.4h11.9v42.8H40.2V71.4z M58.2,98.8
	c0-4.7,1.6-8.6,4.8-11.7c3.2-3.1,7.5-4.6,12.9-4.6c6.2,0,10.9,1.8,14.1,5.4c2.6,2.9,3.8,6.5,3.8,10.8c0,4.8-1.6,8.6-4.7,11.7
	c-3.2,3-7.5,4.6-13.1,4.6c-5,0-9-1.3-12.1-3.8C60.1,107.9,58.2,103.8,58.2,98.8z M70.2,98.8c0,2.7,0.5,4.8,1.6,6.1
	c1.1,1.3,2.5,2,4.3,2c1.7,0,3.1-0.6,4.2-1.9c1.1-1.3,1.6-3.4,1.6-6.3c0-2.7-0.5-4.7-1.6-6c-1.1-1.3-2.5-2-4.1-2
	c-1.7,0-3.1,0.7-4.3,2C70.7,94,70.2,96,70.2,98.8z M133.9,101.7h-23.8c0.2,1.9,0.7,3.3,1.5,4.2c1.2,1.4,2.7,2,4.5,2
	c1.1,0,2.3-0.3,3.3-0.9c0.7-0.4,1.4-1.1,2.1-2l11.7,1.1c-1.8,3.1-4,5.3-6.5,6.7c-2.5,1.4-6.1,2-10.9,2c-4.1,0-7.3-0.6-9.7-1.7
	c-2.3-1.2-4.3-3-5.8-5.6c-1.5-2.5-2.3-5.5-2.3-8.8c0-4.8,1.6-8.8,4.6-11.8c3.1-3,7.4-4.5,12.8-4.5c4.4,0,7.9,0.7,10.5,2
	c2.6,1.4,4.5,3.3,5.9,5.8c1.3,2.5,2,5.9,2,9.9V101.7z M121.8,95.9c-0.2-2.3-0.9-4-1.8-4.9c-1-1-2.3-1.5-3.9-1.5
	c-1.9,0-3.4,0.7-4.5,2.2c-0.7,1-1.2,2.3-1.4,4.2H121.8z M139.5,83.2h11.1v4.5c1.6-1.9,3.2-3.2,4.8-4.1c1.6-0.8,3.6-1.2,5.9-1.2
	c2.5,0,4.4,0.5,5.9,1.4c1.4,0.8,2.6,2.2,3.5,3.9c1.9-2,3.6-3.4,5.1-4.1c1.6-0.7,3.4-1.1,5.7-1.1c3.3,0,5.9,1,7.8,3
	c1.9,2,2.8,5.1,2.8,9.2v19.4h-11.9V96.5c0-1.4-0.3-2.4-0.8-3.1c-0.8-1.1-1.8-1.6-2.9-1.6c-1.4,0-2.6,0.5-3.4,1.5
	c-0.9,1-1.3,2.6-1.3,4.8v16h-11.9V97.1c0-1.4-0.1-2.3-0.2-2.8c-0.2-0.8-0.7-1.4-1.3-1.9c-0.6-0.5-1.4-0.7-2.2-0.7
	c-1.3,0-2.5,0.5-3.3,1.5c-0.9,1-1.3,2.8-1.3,5.1v15.8h-11.9V83.2z M199.2,71.4h11.9v14.8c1.2-1.3,2.5-2.2,4-2.8c1.5-0.6,3.2-1,5.1-1
	c3.7,0,6.9,1.4,9.3,4.1c2.5,2.7,3.7,6.6,3.7,11.7c0,3.4-0.6,6.3-1.7,8.9c-1.1,2.6-2.7,4.5-4.7,5.8c-2,1.3-4.2,1.9-6.6,1.9
	c-2.1,0-4-0.5-5.7-1.4c-1.3-0.7-2.7-2-4.2-3.9v4.6h-11.1V71.4z M211,98.6c0,2.6,0.5,4.6,1.5,5.8c1,1.2,2.3,1.8,3.8,1.8
	c1.4,0,2.6-0.6,3.6-1.8c1-1.2,1.5-3.2,1.5-5.9c0-2.5-0.5-4.3-1.4-5.4c-1-1.1-2.1-1.7-3.5-1.7c-1.6,0-2.9,0.6-3.9,1.8
	C211.5,94.4,211,96.2,211,98.6z M237.5,98.8c0-4.7,1.6-8.6,4.8-11.7c3.2-3.1,7.5-4.6,12.9-4.6c6.2,0,10.9,1.8,14.1,5.4
	c2.5,2.9,3.8,6.5,3.8,10.8c0,4.8-1.6,8.6-4.7,11.7c-3.1,3-7.5,4.6-13.1,4.6c-5,0-9-1.3-12.1-3.8C239.3,107.9,237.5,103.8,237.5,98.8
	z M249.3,98.8c0,2.7,0.6,4.8,1.7,6.1c1.1,1.3,2.5,2,4.2,2c1.7,0,3.1-0.6,4.2-1.9c1.1-1.3,1.6-3.4,1.6-6.3c0-2.7-0.5-4.7-1.6-6
	c-1.1-1.3-2.5-2-4.1-2c-1.7,0-3.2,0.7-4.3,2C249.9,94,249.3,96,249.3,98.8z M279.2,71.4h11.9v42.8h-11.9V71.4z M299,71.4H311v42.8
	H299V71.4z M352.9,101.7h-23.8c0.2,1.9,0.7,3.3,1.5,4.2c1.2,1.4,2.7,2,4.5,2c1.2,0,2.3-0.3,3.3-0.9c0.6-0.4,1.3-1.1,2-2l11.7,1.1
	c-1.8,3.1-4,5.3-6.5,6.7c-2.5,1.4-6.1,2-10.9,2c-4.1,0-7.3-0.6-9.6-1.7c-2.4-1.2-4.3-3-5.8-5.6c-1.6-2.5-2.3-5.5-2.3-8.8
	c0-4.8,1.6-8.8,4.6-11.8c3.1-3,7.4-4.5,12.8-4.5c4.5,0,7.9,0.7,10.5,2c2.6,1.4,4.5,3.3,5.9,5.8c1.4,2.5,2,5.9,2,9.9V101.7z
	 M340.8,95.9c-0.2-2.3-0.9-4-1.8-4.9c-1-1-2.3-1.5-4-1.5c-1.9,0-3.4,0.7-4.5,2.2c-0.7,1-1.2,2.3-1.4,4.2H340.8z M358.4,83.2h11.1
	v5.1c1.6-2.1,3.4-3.5,5-4.4c1.7-0.9,3.8-1.4,6.2-1.4c3.3,0,5.8,1,7.7,3c1.8,1.9,2.8,5,2.8,9v19.7h-11.9v-17c0-1.9-0.3-3.3-1.1-4.1
	c-0.7-0.8-1.7-1.2-3-1.2c-1.4,0-2.6,0.5-3.5,1.7c-0.9,1.1-1.4,3-1.4,5.8v14.9h-11.9V83.2z"/>
<g>
	<path class="st2" d="M207,12.1c0.3,0.4,0.5,1,0.8,1.4C200,25.6,215.4,47,194.7,56c-7.5,3.1-19.6,2.3-21.2-5.3
		c-2.3,4.4-5.3-1.1-7.3-4.7c-6.7-12.1,4-22.8-5.5-33.3c7.3-4,11.3,0.7,16.6,1.8c-3.1-1.8-1.9-3.4,0.9-4.5c5.9-2.5,18.8-0.6,18.2,4.8
		C200.3,12.9,203.7,12.4,207,12.1z"/>
	<path class="st3" d="M219.2,56.3c3.4,30.6-20.7,58-48.4,78.3c2.5-9.9,8.7-18.5,11.6-28.2C202,92,214.1,75.2,219.2,56.3z"/>
	<path class="st4" d="M207,13.2c-22.9,7.2-26.8,23.9-30.3,38.5c1.1,2.5,0.4,2,2.1,3.8c-1.3,0.3-3.7-1.8-4.3-2.9
		c-0.3-3.8-0.2-7.5,2.3-10.5c2.1-9.9,9.1-21.3,20.6-26.6c2.2-1.4,4.2-2.2,6.8-2.3C205.3,12.6,207.1,13,207,13.2z"/>
	<path class="st5" d="M158.3,134.8c15.7-21.8,24.5-46.9,26.9-75.3C190,82.4,181.5,108.8,158.3,134.8z"/>
</g>
</svg>
